<?xml version="1.0" encoding="UTF-8"?><svg id="Layer_1" xmlns="http://www.w3.org/2000/svg" viewBox="0 0 1067.2 687"><defs><style>.cls-1{fill:#eff1f0;}.cls-2{fill:#c06341;}.cls-3{fill:#5a3825;}.cls-4{fill:#505a42;}</style></defs><path class="cls-2" d="m263.97,611.8c0,43.5-45.71,71.52-112.81,71.52H3.32v-5.9h29.49v-239.63L0,417.87h133.09c72.62,0,115.76,19.91,115.76,60.83,0,31.34-23.59,51.98-81.47,62.31,57.88,3.68,96.59,29.12,96.59,70.78Zm-150.05-188.02v115.02h6.64c29.86,0,43.5-19.91,43.5-57.51,0-31.71-9.95-57.51-44.24-57.51h-5.9Zm65.25,189.13c0-45.71-23.96-68.2-54.93-68.2h-10.32v132.72h7.74c40.92,0,57.51-21.38,57.51-64.51Z"/><path class="cls-2" d="m458.97,650.14c-15.48,23.59-40.19,36.86-74.47,36.86-51.98,0-94.75-36.13-94.75-93.27,0-53.83,36.13-98.44,95.12-98.44,34.65,0,58.62,20.28,58.62,47.19,0,30.6-23.59,57.51-67.83,74.1,21.01,20.64,47.55,34.28,72.25,34.28,3.69,0,7.37-.36,10.69-1.1l.37.37Zm-123.5-120.19c0,30.6,15.85,61.57,37.97,84.43,10.32-13.27,14.38-28.02,14.38-46.82,0-32.07-21.38-59.35-37.23-59.35-9.58,0-15.11,8.11-15.11,21.75Z"/><path class="cls-2" d="m657.66,677.42v5.9h-92.17v-21.01c-17.32,14.75-36.86,24.7-57.14,24.7-23.96,0-40.18-13.64-40.18-36.86,0-33.92,36.13-56.4,97.33-63.04,0-40.55-16.22-60.83-44.24-60.83-16.59,0-28.02,4.42-40.55,14.01l-1.84-1.84c25.06-28.01,52.35-43.13,89.21-43.13,46.45,0,71.15,26.54,71.15,80v102.12h18.43Zm-92.17-20.27v-65.25c-22.12,6.26-30.6,20.27-30.6,39.81,0,17.33,7.37,26.54,22.12,26.54,2.21,0,5.16-.37,8.48-1.1Z"/><path class="cls-2" d="m899.85,677.42v5.9h-106.91v-5.9h14.74v-110.97c0-28.75-7-38.34-22.12-38.34-7.37,0-14.75,2.21-22.12,5.53v143.78h14.74v5.9h-106.91v-5.9h18.43v-134.56l-21.01-18.06,94.75-33.18v36.87c23.96-20.65,45.34-35.02,70.41-35.02,31.33,0,47.56,19.54,47.56,57.14v126.82h18.43Z"/><path class="cls-2" d="m915.68,677.42l11.42-60.09h.37l45.71,61.19c5.16,1.47,7.74,1.84,12.16,1.84,16.22,0,27.28-8.48,27.28-23.59,0-11.06-6.63-17.32-22.12-25.44l-24.33-12.9c-30.6-16.22-45.34-33.55-45.34-61.57,0-37.23,30.23-61.57,79.26-61.57,23.96,0,43.13,4.06,61.2,10.69l-14.38,58.25h-.37l-42.76-60.83c-1.84-.74-4.42-1.11-6.26-1.11-16.22,0-24.33,9.22-24.33,19.54,0,12.9,5.9,22.12,27.65,33.55l27.65,14.75c25.44,13.64,38.71,32.07,38.71,54.93,0,38.34-38.71,61.93-84.05,61.93-17.33,0-41.66-1.84-67.46-9.58Z"/><path class="cls-1" d="m557.06,409.61c32.86-11.38,61.07-14.29,79.97-14.87,22.49-.69,48.94-1.22,78.58,12,5.84,2.6,10.79,5.29,14.74,7.64,4.81,2.86,7.3,8.58,5.77,13.97-.05.19-.11.38-.18.57-1.7,5.02-6.4,8.34-12.73,10.89-76.46,30.75-152.68,3.77-152.68,3.77-6.52-2.31-11.56-4.41-13.47-5.21-40.14,3.91-87.79,4.4-140.48-3.49-15.36-2.3-29.96-5.13-43.77-8.33-.32-.08-.65-.17-.95-.31-.58-.27-.92-.61-1.02-1-.22-.93.94-2.19,3.5-3.78,3.29-2.05,6.97-3.38,10.8-4.02,14.09-2.35,28.82-4.38,44.17-5.98,46.97-4.87,89.96-4.64,127.75-1.85Z"/><path class="cls-4" d="m440.24,163.78c7.02,1.23,14.82,2,22.64,2.68,9.04.79,18.1,1.13,27.17.97,1.53-.03,2.47.43,3.32,1.71,1.92,2.89,4.2,5.53,6.85,8.26-2.75,0-5.15.06-7.55,0-26.09-.75-51.95,1.3-77.56,6.34-1.33.26-2.07-.08-2.9-.94-1.93-2.02-3.56-4.27-5.03-6.64-4.16-6.68-7.12-14-11.14-20.69.29-.6.74-.39,1.08-.4,4.3-.06,4.29-.05,2.62-4.16-7.37-18.16-12.35-36.91-13.85-56.51-.53-6.92-.42-13.82.35-20.72.18-1.65.65-2.5,2.45-2.18,1.13.2,1.75-.12,1.65-1.51-1.31-17.4,3.57-33.5,10.47-49.16,2.88-6.55,5.83-13.06,8.69-19.61.51-1.18.92-1.58,2.21-.79,13.05,8.07,26.85,14.84,40.05,22.66,13.04,7.72,25.59,16.1,35.79,27.5.93,1.04,1.62.76,2.37.1.92-.82,1.53-.51,2.41.16,17.29,13.22,31.76,29.04,43.96,47.02.99,1.46,1.08,2.42.07,3.94-10.37,15.56-16.04,32.89-19.15,51.19-1.32,7.75-1.79,15.58-2.42,23.4-.94.07-1.18-.63-1.55-1.07-8.37-9.8-16.32-19.93-23.85-30.39-1.06-1.48-1.15-2.68-.56-4.34,4.09-11.47,6.72-23.28,8.06-35.4-1.82,6.22-3.58,12.45-5.47,18.64-1.37,4.48-2.87,8.92-5.02,13.12-.8,1.55-1.28,1.62-2.31.13-9.27-13.44-17.34-27.58-24.94-42.01-.54-1.03-.39-1.93-.12-2.96,2.17-8.49,3.73-17.08,4.36-25.83.04-.49.23-1.04-.31-1.7-1.85,8.75-3.21,17.45-6.14,26.36-7.33-13.6-13.22-27.52-22.75-39.35,2.35,5.85,4.7,11.7,7.07,17.55.99,2.44.99,2.48-1.64,2.31-3.75-.24-7.34-1.28-10.98-2.13,3.92,2.23,8.2,3.3,12.67,3.53,1.3.07,1.97.48,2.46,1.69,6.69,16.24,13.75,32.32,21.61,48.04.1.2.13.43.31,1.02-11.87-.21-23.15-3.3-35.18-5.02,9.61,3.23,18.85,5.71,28.31,7.31.78.13,1.59.43,2.35.35,5.31-.56,7.63,2.55,9.77,6.89,4.87,9.92,10.58,19.4,16.95,28.45,1.02,1.44.94,1.87-.94,2.02-12.56,1.01-25.11.56-37.67.22-3.22-.09-6.44-.01-9.04-.01Z"/><path class="cls-3" d="m469.36,247.57c17.18.15,34.34,1.04,51.5,1.58,1.95.06,2.65.73,3.13,2.57,8.62,33.04,21.78,64.06,41.33,92.19,7.97,11.46,17.29,21.79,27.26,31.53,1.55,1.52,1.12,1.84-.5,2.6-21.04,9.87-43.2,15.95-66.13,19.28-24.9,3.62-49.9,4.25-74.95,1.93-33.01-3.06-65.27-9.48-95.99-22.37-14.23-5.97-27.61-13.42-38.74-24.34-13.63-13.37-19.88-29.28-16.17-48.44,1.94-9.99,7.25-18.05,14.81-24.69,10.31-9.05,22.57-14.43,35.44-18.57,20.02-6.44,40.7-9.4,61.56-11.26,19.11-1.7,38.26-2.18,57.44-2.02Z"/><path class="cls-3" d="m657.02,244.65c.42-14.79,1.12-29.57.06-44.36-1.7-23.91-6.81-46.84-19.03-67.8-7.52-12.9-17.38-23.88-27.87-34.35-7.76-7.75-15.77-15.28-22.24-24.22-1.56-2.15-1.56-2.18,1.06-2.79,31.67-7.35,61.07-1.64,88.41,15.55,21.65,13.61,38.69,31.91,52.95,52.9,24.12,35.5,38.4,74.59,42.09,117.43,2.1,24.33,1.22,48.48-5.18,72.2-4.19,15.53-10.64,29.96-21.53,42.06-10.54,11.72-23.64,18.82-39.17,21.49-1.17.2-1.93-.03-2.75-.83-22.36-21.49-36.46-47.46-42.42-77.89-3.99-20.33-4.57-40.89-4.38-61.52.02-2.62,0-5.25,0-7.87Z"/><path class="cls-3" d="m522.96,182.53c.05-18.53,2.6-38.87,10.62-58.22,7.26-17.51,18.3-31.91,34.87-41.69,1.68-.99,3.08-1.05,4.88-.43,23.67,8.14,39.48,24.51,49.47,47.02,7.46,16.81,11.1,34.61,13.3,52.74,3.13,25.79,3.08,51.73,3.44,77.65.21,15.34.17,30.73,2.76,45.92,3.56,20.83,10.89,40.13,24.05,56.95,8.18,10.46,16.66,20.7,23.43,32.18,1.59,2.69,2.01,2.4-1.22,3.2-24.09,6.01-46.51,1.57-67.59-10.94-19.52-11.58-34.78-27.66-47.74-46.01-21.81-30.89-35.85-65.2-44.05-101.98-3.97-17.83-6.18-35.87-6.23-56.39Z"/><path class="cls-3" d="m293.74,294.31c.4-5.95,1.4-11.05,2.8-16.07,6.25-22.53,20.14-39.56,38.67-53.14,18.79-13.77,39.95-22.49,62.26-28.62,32.48-8.92,65.61-11.98,99.2-10.63,5.48.22,10.95.71,16.43.99,1.31.07,1.74.49,1.77,1.83.33,15.3,2.06,30.45,5.1,45.45.43,2.14-.52,1.91-2,1.73-26.2-3.26-52.41-6.39-78.86-6.73-23.41-.3-46.55,1.63-69.04,8.67-29.33,9.17-52.99,26.39-71.75,50.56-1.39,1.79-2.75,3.59-4.57,5.97Z"/></svg>