<?xml version="1.0" encoding="UTF-8"?><svg id="Layer_1" xmlns="http://www.w3.org/2000/svg" xmlns:xlink="http://www.w3.org/1999/xlink" viewBox="0 0 731.17 731.01"><defs><style>.cls-1{fill:none;}.cls-2{clip-path:url(#clippath);}.cls-3{fill:#c06341;}</style><clipPath id="clippath"><rect class="cls-1" x="0" y="0" width="731.16" height="731"/></clipPath></defs><g class="cls-2"><g id="Group_55"><path id="Path_10" class="cls-3" d="m365.66,178.09c-103.51,0-187.43,83.91-187.43,187.43s83.91,187.43,187.43,187.43,187.43-83.91,187.43-187.43h0c.16-103.36-83.48-187.26-186.82-187.43-.2,0-.4,0-.6,0m0,309.27c-67.29,0-121.85-54.55-121.85-121.85s54.55-121.85,121.85-121.85,121.85,54.55,121.85,121.85c-.13,67.24-54.6,121.72-121.85,121.85m238.8-316.95c0,24.14-19.57,43.71-43.71,43.71s-43.71-19.57-43.71-43.71,19.57-43.71,43.71-43.71c24.09-.05,43.66,19.43,43.71,43.52,0,.06,0,.13,0,.19m124.12,44.37c-2.77-58.56-16.15-110.43-59.04-153.16-42.89-42.73-94.6-56.11-153.16-59.04-60.3-3.43-241.2-3.43-301.6,0-58.4,2.79-110.27,16.19-153.15,58.88C18.76,104.15,5.51,156.06,2.57,214.62c-3.43,60.3-3.43,241.2,0,301.6,2.79,58.57,16.19,110.44,59.07,153.18,42.88,42.73,94.6,56.11,153.16,59.05,60.3,3.43,241.2,3.43,301.6,0,58.56-2.77,110.43-16.15,153.16-59.05,42.73-42.91,56.11-94.6,59.04-153.16,3.43-60.3,3.43-241.08,0-301.5m-77.97,366.25c-12.54,31.79-37.7,56.95-69.49,69.49-48.12,19.08-162.3,14.74-215.47,14.74s-167.5,4.23-215.47-14.74c-31.79-12.54-56.95-37.7-69.49-69.49-19.08-48.12-14.74-162.3-14.74-215.47s-4.23-167.5,14.74-215.47c12.54-31.79,37.7-56.95,69.49-69.49,48.12-19.08,162.3-14.74,215.47-14.74s167.5-4.23,215.47,14.74c31.8,12.55,56.97,37.74,69.49,69.55,19.08,48.12,14.74,162.3,14.74,215.47s4.41,167.5-14.74,215.47"/></g></g></svg>