<?xml version="1.0" encoding="UTF-8"?><svg id="Layer_1" xmlns="http://www.w3.org/2000/svg" viewBox="0 0 709.88 710"><defs><style>.cls-1{fill:#505a42;}</style></defs><path id="searcg" class="cls-1" d="m700.23,613.81l-138.29-138.29c-6.26-6.24-14.75-9.74-23.59-9.71h-22.61c97.98-125.56,75.62-306.78-49.94-404.76C340.24-36.94,159.02-14.58,61.04,110.98-36.94,236.54-14.58,417.76,110.98,515.74c104.28,81.37,250.54,81.37,354.82,0v22.61c-.02,8.84,3.47,17.33,9.71,23.59l138.29,138.29c12.91,12.98,33.91,13.04,46.89.13.04-.04.08-.08.13-.13l39.25-39.25c13.02-13,13.09-34.08.16-47.17Zm-411.96-148c-98.03,0-177.5-79.47-177.5-177.5s79.47-177.5,177.5-177.5,177.5,79.47,177.5,177.5-79.47,177.5-177.5,177.5Z"/></svg>