<?xml version="1.0" encoding="UTF-8"?><svg id="Layer_1" xmlns="http://www.w3.org/2000/svg" xmlns:xlink="http://www.w3.org/1999/xlink" viewBox="0 0 707.53 589"><defs><style>.cls-1{fill:none;}.cls-2{clip-path:url(#clippath);}.cls-3{fill:#c06341;}</style><clipPath id="clippath"><rect class="cls-1" y="0" width="707.46" height="589"/></clipPath></defs><g class="cls-2"><g id="Group_53"><path id="Path_9" class="cls-3" d="m634.74,146.79c.45,6.43.45,12.85.45,19.28,0,196.48-145.89,422.92-412.53,422.92-79.16.15-156.61-23.06-222.66-66.7,11.62,1.31,23.32,1.93,35.02,1.84,65.49.07,129.02-22.35,179.97-63.5-62.64-1.66-117.21-43.16-135.53-103.08,9.05,1.47,18.21,2.24,27.38,2.3,12.88-.04,25.71-1.74,38.15-5.06-68.41-14.95-116.94-75.84-116.26-145.86v-1.84c20.02,11.48,42.51,17.95,65.56,18.87-40.71-28.03-64.93-74.37-64.72-123.79-.07-26.3,6.76-52.17,19.81-75.01,72.67,92.41,181.6,149.08,298.99,155.53-2.33-11.2-3.53-22.61-3.59-34.05C343.75,67.56,408.64,1.02,489.7,0c.02,0,.04,0,.06,0,40.35,0,78.83,17.04,105.94,46.93,32.55-6.44,63.71-18.59,92.03-35.89-10.63,34.12-33.28,63.22-63.75,81.91,28.86-3.37,57.04-11.13,83.56-23.01-19.75,29.52-44.33,55.5-72.72,76.85"/></g></g></svg>